# xmcd
#
# Track frame offsets:
# 150
# 18377
# 33307
# 55017
# 70099
# 90262
# 105570
# 122596
# 133686
# 153756
# 168147
# 185990
#
# Disc length: 2714 seconds
#
#
# Revision: 0
# Processed by: cddbd v1.5.2PL0 Copyright (c) Steve Scherf et al.
# Submitted via: FreeRIP 2.96 
#
DISCID=8e0a980c
DTITLE=marciano - inimitável
DYEAR=1900
DGENRE=sertanejo
TTITLE0=apaixonado demais
TTITLE1=boate azul
TTITLE2=dono de nada
TTITLE3=dama de vermelho
TTITLE4=eu te amo
TTITLE5=baile de verão
TTITLE6=doce paixão
TTITLE7=cinturinha de pilão
TTITLE8=ninguém te ama como eu
TTITLE9=a bailarina
TTITLE10=amor a primeira vista
TTITLE11=eu e ela e o caminhão
EXTD=
EXTT0=
EXTT1=
EXTT2=
EXTT3=
EXTT4=
EXTT5=
EXTT6=
EXTT7=
EXTT8=
EXTT9=
EXTT10=
EXTT11=
PLAYORDER=
